# xmcd
#
# Track frame offsets: 
#        150
#        15000
#        37170
#        52335
#        74737
#        88022
#        116365
#        147630
#        164920
#        177207
#
# Disc length: 2555 seconds
#
# Revision: 1
# Processed by: cddbd v1.5.1PL0 Copyright (c) Steve Scherf et al.
# Submitted via: ExactAudioCopy v0.90b4
#
DISCID=9509f90a
DTITLE=Sonny Terry and Brownie McGhee - Sun's Gonna Shine
DYEAR=2003
DGENRE=Blues
TTITLE0=Walk On
TTITLE1=Blues For The Lowlands
TTITLE2=Down By The Riverside
TTITLE3=Drinking In The Blues
TTITLE4=Right On That Shore
TTITLE5=Blowin' The Fuses
TTITLE6=Blues For The Gamblers (With Lightnin' Hopkins)
TTITLE7=Just Rode In Your Town
TTITLE8=Po' Boy
TTITLE9=Sun's Gonna Shine
EXTD=
EXTT0=
EXTT1=
EXTT2=
EXTT3=
EXTT4=
EXTT5=
EXTT6=
EXTT7=
EXTT8=
EXTT9=
PLAYORDER=
